<?xml version="1.0" encoding="utf-8"?>
<!-- Generator: $$$/GeneralStr/196=Adobe Illustrator 27.6.0, SVG Export Plug-In . SVG Version: 6.00 Build 0)  -->
<svg version="1.1" id="Laag_1" xmlns="http://www.w3.org/2000/svg" xmlns:xlink="http://www.w3.org/1999/xlink" x="0px" y="0px"
	 viewBox="0 0 666.6 135.5" style="enable-background:new 0 0 666.6 135.5;" xml:space="preserve">
<style type="text/css">
	.st0{fill:url(#U_00000144338277255236403900000007561672100289681793_);}
	.st1{fill:url(#R_00000145763449816124299080000016655892850234946972_);}
	.st2{fill:url(#B_00000128479486852735554940000003292172932039257515_);}
	.st3{fill:url(#A_00000058568118373325266930000004058902906826453919_);}
	.st4{fill:url(#N_00000100377155442739484080000016314565880848182442_);}
	.st5{fill:url(#SVGID_1_);}
	.st6{fill:url(#SVGID_00000010276261612461444860000008053655366121831816_);}
	.st7{fill:url(#SVGID_00000067213334087888474580000010872683975443486886_);}
	.st8{fill:url(#SVGID_00000147191412818488544990000004066965320741513377_);}
	.st9{fill:url(#SVGID_00000042700972274554909090000017799274224779449252_);}
	.st10{fill:url(#SVGID_00000110460391836358841110000014181136830083277958_);}
	.st11{fill:url(#SVGID_00000083053086151042401050000010076321692348731532_);}
	.st12{fill:url(#SVGID_00000178193813532924962910000010582545464686752148_);}
	.st13{fill:url(#SVGID_00000093894245417679132990000007365120297063383680_);}
	.st14{fill:url(#SVGID_00000098912284379415438380000013581939658184748213_);}
	.st15{fill:url(#SVGID_00000003806005764593419510000007269812688083163795_);}
	.st16{fill:url(#SVGID_00000062157829840208204880000013190957643388608675_);}
	.st17{fill:url(#SVGID_00000177465484042119228030000016773536618691876505_);}
	.st18{fill:url(#SVGID_00000147905330403356089400000013487576129053440430_);}
	.st19{fill:url(#SVGID_00000122678974925344678740000015686660890437305498_);}
	.st20{fill:url(#l_00000115514829136691149760000015971366488592149400_);}
	.st21{fill:url(#o_00000000906677016111016200000003955099451226051721_);}
	.st22{fill:url(#o_00000110433747309888355840000011925658090776028042_);}
	.st23{fill:url(#s_00000058570473808142305730000007296709463714547351_);}
	.st24{fill:url(#SVGID_00000015351970640518077470000012585679010691563435_);}
</style>
<g id="Urban">
</g>
<g id="blooms">
	<g>
		
			<linearGradient id="U_00000066504183285543148110000009416004221351753354_" gradientUnits="userSpaceOnUse" x1="-20.6143" y1="58.6566" x2="679.1418" y2="58.6566" gradientTransform="matrix(1 0 0 -1 0 136.1299)">
			<stop  offset="0" style="stop-color:#91B796"/>
			<stop  offset="0.5" style="stop-color:#E2EED9"/>
			<stop  offset="1" style="stop-color:#91B796"/>
		</linearGradient>
		<path id="U" style="fill:url(#U_00000066504183285543148110000009416004221351753354_);" d="M30.3,20.6v92.9
			c0,3.4-1.5,5.1-4.6,5.1s-4.8-1.7-4.8-5.1V20.6H0.3c1.2,8.1-3,99.2,3,103.9v-13h1.8V95.8h1.7V82.6h1.4V73h2.7v9.5h1.4v13.2h1.7
			v15.7h1.8v8H22v5.4h3.5v9.5c16.7,0.3,26-7.8,25.9-22.3V20.6L30.3,20.6L30.3,20.6z"/>
		
			<linearGradient id="R_00000142864686961263550180000017980929117721421728_" gradientUnits="userSpaceOnUse" x1="-20.6143" y1="59.1478" x2="679.1418" y2="59.1478" gradientTransform="matrix(1 0 0 -1 0 136.1299)">
			<stop  offset="0" style="stop-color:#91B796"/>
			<stop  offset="0.5" style="stop-color:#E2EED9"/>
			<stop  offset="1" style="stop-color:#91B796"/>
		</linearGradient>
		<path id="R" style="fill:url(#R_00000142864686961263550180000017980929117721421728_);" d="M57.8,133.5v-113
			c16.2,0,50.6-2.9,50.6,17.9c0,10.6,2.6,38.3-11.2,39v0.7c6.9,0.9,11.7,4.2,11.7,13.6v41.9H88.1V90.1c0.5-5.4-5.6-4.9-9.4-4.8v48.1
			L57.8,133.5L57.8,133.5z M88,40.5c0.5-5-5.7-4.5-9.4-4.4v35.2c4.3,0.3,9.8,0.2,9.4-5.6C88,65.7,88,40.5,88,40.5z"/>
		
			<linearGradient id="B_00000014595495771480365030000002692799997808072339_" gradientUnits="userSpaceOnUse" x1="-20.6143" y1="59.4586" x2="679.1418" y2="59.4586" gradientTransform="matrix(1 0 0 -1 0 136.1299)">
			<stop  offset="0" style="stop-color:#91B796"/>
			<stop  offset="0.5" style="stop-color:#E2EED9"/>
			<stop  offset="1" style="stop-color:#91B796"/>
		</linearGradient>
		<path id="B" style="fill:url(#B_00000014595495771480365030000002692799997808072339_);" d="M153.7,74v-0.7
			c13.6-0.8,10.8-24.7,10.8-34.9c0-24.8-34-17.9-50-17.9v113h5V99.4h1.7V88h2.2v-6.6h1.7V88h2.2v11.4h1.7v34.1
			c13.8-0.1,38.4,3,36.8-15.1V88.4C166,77.9,160.5,75,153.7,74z M135.3,35.4c4.8-0.2,10.1-0.5,9.4,6.1v20.2c0.4,6-5.1,5.8-9.4,5.6
			V35.4z M144.9,112.6c0.4,6-5,6.5-9.6,6.1V81.5c4.4-0.3,9.9,0,9.6,5.8C144.9,87.3,144.9,112.6,144.9,112.6z"/>
		
			<linearGradient id="A_00000095327938941523482140000001805741072973402280_" gradientUnits="userSpaceOnUse" x1="-20.6143" y1="59.0798" x2="679.1418" y2="59.0798" gradientTransform="matrix(1 0 0 -1 0 136.1299)">
			<stop  offset="0" style="stop-color:#91B796"/>
			<stop  offset="0.5" style="stop-color:#E2EED9"/>
			<stop  offset="1" style="stop-color:#91B796"/>
		</linearGradient>
		<path id="A" style="fill:url(#A_00000095327938941523482140000001805741072973402280_);" d="M203.2,133.5l-2.3-25.7h-10.6
			l-2.1,25.7h-20.6l13.5-113h29.6l13.5,113H203.2z M191.6,93h8.1l-3.5-43.7h-0.8L191.6,93z"/>
		
			<linearGradient id="N_00000066509301176455239970000015187895119850133914_" gradientUnits="userSpaceOnUse" x1="-20.6143" y1="59.0798" x2="679.1418" y2="59.0798" gradientTransform="matrix(1 0 0 -1 0 136.1299)">
			<stop  offset="0" style="stop-color:#91B796"/>
			<stop  offset="0.5" style="stop-color:#E2EED9"/>
			<stop  offset="1" style="stop-color:#91B796"/>
		</linearGradient>
		<path id="N" style="fill:url(#N_00000066509301176455239970000015187895119850133914_);" d="M264.9,20.6
			c-0.1,20.6,0.1,62.5,0.8,72.6h-0.8l-8.5-72.6h-28.1v113h18.1c0-18.8,0.3-68-0.8-78.4h0.8l12.1,78.4h24.8v-113H264.9z"/>
		<g id="b">
			
				<linearGradient id="SVGID_1_" gradientUnits="userSpaceOnUse" x1="-20.6143" y1="51.652" x2="679.1418" y2="51.652" gradientTransform="matrix(1 0 0 -1 0 136.1299)">
				<stop  offset="0" style="stop-color:#91B796"/>
				<stop  offset="0.5" style="stop-color:#E2EED9"/>
				<stop  offset="1" style="stop-color:#91B796"/>
			</linearGradient>
			<path class="st5" d="M325.1,34.9h5.5V81c17.6-26.2,61.9-11.9,60.6,19.7c1.2,31.6-43,45.9-60.6,19.6v12.1h-5.5V34.9z M330.6,95
				c-6,40.2,53,45.9,54.8,5.7C385.9,68,337.1,63.1,330.6,95z"/>
			<g>
				
					<linearGradient id="SVGID_00000003077022678205971390000010313684732303585461_" gradientUnits="userSpaceOnUse" x1="-20.6143" y1="90.6049" x2="679.1418" y2="90.6049" gradientTransform="matrix(1 0 0 -1 0 136.1299)">
					<stop  offset="0" style="stop-color:#91B796"/>
					<stop  offset="0.5" style="stop-color:#E2EED9"/>
					<stop  offset="1" style="stop-color:#91B796"/>
				</linearGradient>
				<path style="fill:url(#SVGID_00000003077022678205971390000010313684732303585461_);" d="M307.6,37.7
					C307.6,37.8,307.6,37.8,307.6,37.7c4.9-1.5,10.6-2.3,15.7-0.4c-9,2.4-20-2-24.5,11.1c0,0,0.1,0,0.1,0.1c5-3.7,11.3-4.4,17-6.6
					c-6.6,3.8-8.5,11.5-13.9,16.3c2.7-0.7,5.2-1.8,7.6-3.3c-0.7,2.9-0.9,5.7-0.5,8.6c-1.6,0.8-3.1,1.6-4.8,2.4
					c0.5-2,0.7-4.1,0.8-6.1c-4.1,3.9-9,6.7-14.5,8.2c4.1-4.1,8-8.8,8.6-14.8c-3.1,0.9-5.8,2.4-8.3,4.4c2.9-6.4,5.6-13.5,11.9-17.4
					c-2-0.9-4-1.8-6-2.7c0,0,0-0.1,0-0.1c1.6-0.5,2.9-1.5,4.3-2.5c-5.4-1.5-11.1-2.5-15.6-6.1c5.5,1.5,11.9,2.8,16.9-0.9
					c-2.1-1.5-4.5-2.5-7-3.1c10.6-4.2,26.2-1.5,29,11.1c-0.5-0.2-1.3,0-1.5-0.5c-2-6.8-10.6-13.4-17.8-10.2c4.9,1.4,8.6,5,12.8,7.6
					c-5.6-2.5-11.6,0.2-17.3-0.9c3.2,2.4,6.8,3.9,10.9,4.2C310.3,36.8,308.9,37.1,307.6,37.7 M298.9,48.5
					C298.9,48.5,298.9,48.5,298.9,48.5C298.9,48.5,298.9,48.5,298.9,48.5z"/>
				
					<linearGradient id="SVGID_00000079454641632139657320000006476294191070856068_" gradientUnits="userSpaceOnUse" x1="-20.6143" y1="78.3069" x2="679.1418" y2="78.3069" gradientTransform="matrix(1 0 0 -1 0 136.1299)">
					<stop  offset="0" style="stop-color:#91B796"/>
					<stop  offset="0.5" style="stop-color:#E2EED9"/>
					<stop  offset="1" style="stop-color:#91B796"/>
				</linearGradient>
				<path style="fill:url(#SVGID_00000079454641632139657320000006476294191070856068_);" d="M346.6,46.4c4.5,5.2,6.1,12,8.1,18.5
					c-2-1.2-4.2-1.6-6.4-2.2c2.3,4.5,4,9.5,3.4,14.7c-2.1-5-6.1-8.7-11.5-9.8c0.4,3.4,1.4,6.6,3.1,9.6c-7.4-4.6-15.3-10.4-17.4-19.4
					C321.8,37.6,331.8,31.9,346.6,46.4 M346,65.9C346,65.8,346,65.8,346,65.9c-0.6-8.5-5.3-16-12.2-20.9c7.1,0.9,12,5.3,15.5,11.3
					c0,0,0,0,0,0c-1.1-8-13.5-21-21-14.2c-2.9,8.7-2.8,20.8,6.8,25.2c0,0,0.1,0,0.1-0.1c-3.3-5.8-2.5-12.8-3.9-19.1c0,0,0,0,0.1,0
					C334.1,55.8,342.1,59.2,346,65.9z"/>
				
					<linearGradient id="SVGID_00000068676967859277912070000013587917233886959013_" gradientUnits="userSpaceOnUse" x1="-20.6143" y1="119.116" x2="679.1418" y2="119.116" gradientTransform="matrix(1 0 0 -1 0 136.1299)">
					<stop  offset="0" style="stop-color:#91B796"/>
					<stop  offset="0.5" style="stop-color:#E2EED9"/>
					<stop  offset="1" style="stop-color:#91B796"/>
				</linearGradient>
				<path style="fill:url(#SVGID_00000068676967859277912070000013587917233886959013_);" d="M347.4,18.8c0.2-0.4,0.4-0.8,0.5-1.2
					c0,0,0,0,0,0c-4.3,4.1-11.1,4.8-14.8,9.9c2.4-4.4,3.6-9.5,7.2-13.3c-7.3,0-14.1,14.2-9,19c-1.2,1.6-2.2,0.9-2.8-0.7
					c-1.1,0.8-1.7,0.5-2.1-0.7c3.6-0.5,1.3-5.9,3-8.4c2.2-4,2.1-6.8-1.7-9.9c0.9,4.3-0.1,8.5-0.4,12.7c0,0,0,0-0.1,0
					c-0.6-5.2-5-8.5-6.7-13.3c0,0,0,0-0.1,0c-0.8,5.4,1.2,11,4.8,15.1c-4.4-1.5-6.9-5.1-8.3-9.4c0,1.6,0.3,3.2,0.8,4.7
					c-3.7-1.6-2.3-7.7-2.9-11.1c1.1,0.9,3.2,2.1,3.8,2.2c-1.1-4.7-2.8-9.5-2-14.5c1.3,4.8,3,10.4,7.9,12.5c0.3-2.3,0-4.4-0.5-6.6
					c3.4,3.6,7,7.3,8,12.2c3.7-5.7,10.4-7.6,16.6-9.4c-1.9,1.8-3.3,3.9-4.4,6.3c6.2,0.7,11.2-3.7,15.1-8c0,0,0,0,0.1,0.1
					c-2.1,5.4-6.5,9.2-10.4,13.4c1.8,0.1,3.4,0.3,5.2-0.1c-2.3,2.3-3.3,7.7-7.1,6.9c0.4-0.6,0.8-1.1,1.2-1.7c0,0,0-0.1-0.1-0.1
					c-2.4,2.7-6,2-9,3.4c-1.5,0.6-2.9,1.5-4.6,1.2C339.9,28.1,345,24.4,347.4,18.8C347.4,18.9,347.4,18.9,347.4,18.8z"/>
				
					<linearGradient id="SVGID_00000072963961247151965520000006940128372976093580_" gradientUnits="userSpaceOnUse" x1="-20.6143" y1="96.3314" x2="679.1418" y2="96.3314" gradientTransform="matrix(1 0 0 -1 0 136.1299)">
					<stop  offset="0" style="stop-color:#91B796"/>
					<stop  offset="0.5" style="stop-color:#E2EED9"/>
					<stop  offset="1" style="stop-color:#91B796"/>
				</linearGradient>
				<path style="fill:url(#SVGID_00000072963961247151965520000006940128372976093580_);" d="M354.6,30.3
					c-6.9-2.8-18.5,0.5-21.5,7.4c-3-0.1-1.7-2.1-0.2-3.5c11-10.2,26.6-6.5,37,2.6c-3.2-0.4-6.4-0.3-9.5,0.5c3.8,5.9,10.4,8.4,17,9.9
					c-6.2,1.1-12.7,1.3-18.6-1.2c1.2,1.7,2.3,3.5,4,4.8c-3.7-0.3-12.4,2.6-13.6-1.7c1.5,0,2.9,0,4.4-0.1c0,0,0-0.1,0-0.1
					c-3.5-0.5-6.1-1.7-8.2-4.6c-2-2.1-5.1-3-6.9-5.2c6.9,4.5,14.3,6,22.4,3.8c-7.1-1.3-12.9-7-20.5-6.9c0,0,0,0,0-0.1
					c6.1-1,11.8-3.7,18.1-3C357.4,32,356,31.2,354.6,30.3z"/>
				
					<linearGradient id="SVGID_00000151510347812088030740000009726755505556845223_" gradientUnits="userSpaceOnUse" x1="-20.6143" y1="73.8899" x2="679.1418" y2="73.8899" gradientTransform="matrix(1 0 0 -1 0 136.1299)">
					<stop  offset="0" style="stop-color:#91B796"/>
					<stop  offset="0.5" style="stop-color:#E2EED9"/>
					<stop  offset="1" style="stop-color:#91B796"/>
				</linearGradient>
				<path style="fill:url(#SVGID_00000151510347812088030740000009726755505556845223_);" d="M311.3,55.7
					c1.5-7.5,7.3-16.7,15.5-17.6c-0.4,0.6-0.4,1.5-0.9,1.9c-8.4,2.4-16.2,13.9-11.7,22.5c1.4-6.1,5.7-10.8,8.6-16.2
					c-2.5,7.2,1,14.4,0.1,21.6c1.4-1.9,2.3-4,3.1-6.1c1.2,2.5,2.6,5,4.6,7c0.7,0.9-0.7,2.2-0.8,3.3c0,0-0.1,0-0.1,0
					c-0.7-2-2.1-3.5-3.4-5.2c-1.6,6.6-2.5,13.8-6.5,19.5c0,0,0,0-0.1,0c1.6-6.8,2.8-15-2.2-20.6c-1.7,2.7-2.8,5.6-3.4,8.7
					C312.4,68.4,310.1,62.1,311.3,55.7z"/>
				
					<linearGradient id="SVGID_00000064323314143158265410000010900684501874937022_" gradientUnits="userSpaceOnUse" x1="-20.6143" y1="118.4548" x2="679.1418" y2="118.4548" gradientTransform="matrix(1 0 0 -1 0 136.1299)">
					<stop  offset="0" style="stop-color:#91B796"/>
					<stop  offset="0.5" style="stop-color:#E2EED9"/>
					<stop  offset="1" style="stop-color:#91B796"/>
				</linearGradient>
				<path style="fill:url(#SVGID_00000064323314143158265410000010900684501874937022_);" d="M347.8,17.7c0-0.1,0.1-0.1,0.1-0.2
					c0,0,0,0,0,0C348,17.7,347.9,17.7,347.8,17.7C347.8,17.8,347.8,17.8,347.8,17.7z"/>
				
					<linearGradient id="SVGID_00000141420849360711370480000000982240197513189257_" gradientUnits="userSpaceOnUse" x1="-20.6143" y1="98.3298" x2="679.1418" y2="98.3298" gradientTransform="matrix(1 0 0 -1 0 136.1299)">
					<stop  offset="0" style="stop-color:#91B796"/>
					<stop  offset="0.5" style="stop-color:#E2EED9"/>
					<stop  offset="1" style="stop-color:#91B796"/>
				</linearGradient>
				<path style="fill:url(#SVGID_00000141420849360711370480000000982240197513189257_);" d="M307.6,37.9c0,0-0.1,0-0.1,0
					c0,0,0-0.1,0.1-0.1C307.6,37.8,307.6,37.8,307.6,37.9z"/>
				
					<linearGradient id="SVGID_00000129185816116750950870000011513671314905575609_" gradientUnits="userSpaceOnUse" x1="234.0308" y1="106.0548" x2="474.0211" y2="106.0548" gradientTransform="matrix(1 0 0 -1 0 136.1299)">
					<stop  offset="0" style="stop-color:#91B796"/>
					<stop  offset="0.5" style="stop-color:#E2EED9"/>
					<stop  offset="1" style="stop-color:#91B796"/>
				</linearGradient>
				<path style="fill:url(#SVGID_00000129185816116750950870000011513671314905575609_);" d="M354,30.1
					C354,30.1,354.1,30.1,354,30.1C354,30.1,354,30.1,354,30.1z"/>
				
					<linearGradient id="SVGID_00000100361060746209197450000006553735409097224865_" gradientUnits="userSpaceOnUse" x1="231.3852" y1="105.7748" x2="477.9185" y2="105.7748" gradientTransform="matrix(1 0 0 -1 0 136.1299)">
					<stop  offset="0" style="stop-color:#91B796"/>
					<stop  offset="0.5" style="stop-color:#E2EED9"/>
					<stop  offset="1" style="stop-color:#91B796"/>
				</linearGradient>
				<path style="fill:url(#SVGID_00000100361060746209197450000006553735409097224865_);" d="M354.7,30.3
					C354.7,30.4,354.7,30.4,354.7,30.3C354.7,30.4,354.6,30.4,354.7,30.3z"/>
				
					<linearGradient id="SVGID_00000054230592042318257560000001202501982063228591_" gradientUnits="userSpaceOnUse" x1="-20.6143" y1="117.2703" x2="276.5921" y2="117.2703" gradientTransform="matrix(1 0 0 -1 0 136.1299)">
					<stop  offset="0" style="stop-color:#91B796"/>
					<stop  offset="0.5" style="stop-color:#E2EED9"/>
					<stop  offset="1" style="stop-color:#91B796"/>
				</linearGradient>
				<path style="fill:url(#SVGID_00000054230592042318257560000001202501982063228591_);" d="M347.4,18.8
					C347.4,18.9,347.4,18.9,347.4,18.8C347.4,18.8,347.4,18.8,347.4,18.8z"/>
				
					<linearGradient id="SVGID_00000057864836263911116400000006889369622781491609_" gradientUnits="userSpaceOnUse" x1="211.6667" y1="88.6998" x2="371.5788" y2="88.6998" gradientTransform="matrix(1 0 0 -1 0 136.1299)">
					<stop  offset="0" style="stop-color:#91B796"/>
					<stop  offset="0.5" style="stop-color:#E2EED9"/>
					<stop  offset="1" style="stop-color:#91B796"/>
				</linearGradient>
				<path style="fill:url(#SVGID_00000057864836263911116400000006889369622781491609_);" d="M299.3,47.5
					C299.3,47.4,299.3,47.4,299.3,47.5C299.3,47.4,299.3,47.5,299.3,47.5z"/>
				
					<linearGradient id="SVGID_00000021116037604948179790000015351036666138122401_" gradientUnits="userSpaceOnUse" x1="-20.6143" y1="87.6198" x2="459.3661" y2="87.6198" gradientTransform="matrix(1 0 0 -1 0 136.1299)">
					<stop  offset="0" style="stop-color:#91B796"/>
					<stop  offset="0.5" style="stop-color:#E2EED9"/>
					<stop  offset="1" style="stop-color:#91B796"/>
				</linearGradient>
				<path style="fill:url(#SVGID_00000021116037604948179790000015351036666138122401_);" d="M298.9,48.5
					C298.9,48.5,298.9,48.5,298.9,48.5C298.9,48.5,298.9,48.5,298.9,48.5z"/>
				
					<linearGradient id="SVGID_00000118373238219800630140000002897771533025550492_" gradientUnits="userSpaceOnUse" x1="-20.6143" y1="79.8671" x2="254.9662" y2="79.8671" gradientTransform="matrix(1 0 0 -1 0 136.1299)">
					<stop  offset="0" style="stop-color:#91B796"/>
					<stop  offset="0.5" style="stop-color:#E2EED9"/>
					<stop  offset="1" style="stop-color:#91B796"/>
				</linearGradient>
				<path style="fill:url(#SVGID_00000118373238219800630140000002897771533025550492_);" d="M349.3,56.2
					C349.3,56.3,349.3,56.3,349.3,56.2C349.3,56.3,349.3,56.3,349.3,56.2C349.3,56.2,349.3,56.2,349.3,56.2z"/>
				
					<linearGradient id="SVGID_00000034810457818227193420000017602753717452808595_" gradientUnits="userSpaceOnUse" x1="-20.6143" y1="70.3086" x2="459.3661" y2="70.3086" gradientTransform="matrix(1 0 0 -1 0 136.1299)">
					<stop  offset="0" style="stop-color:#91B796"/>
					<stop  offset="0.5" style="stop-color:#E2EED9"/>
					<stop  offset="1" style="stop-color:#91B796"/>
				</linearGradient>
				<path style="fill:url(#SVGID_00000034810457818227193420000017602753717452808595_);" d="M346,65.8C346,65.8,346,65.8,346,65.8
					C346,65.8,346,65.8,346,65.8C346,65.8,346,65.8,346,65.8z"/>
			</g>
		</g>
		
			<linearGradient id="l_00000150085102268018125180000003401102454358693005_" gradientUnits="userSpaceOnUse" x1="-20.6143" y1="49.7598" x2="679.1418" y2="49.7598" gradientTransform="matrix(1 0 0 -1 0 136.1299)">
			<stop  offset="0" style="stop-color:#91B796"/>
			<stop  offset="0.5" style="stop-color:#E2EED9"/>
			<stop  offset="1" style="stop-color:#91B796"/>
		</linearGradient>
		<path id="l" style="fill:url(#l_00000150085102268018125180000003401102454358693005_);" d="M402.7,37.6v97.6h-5.5V37.6H402.7z"/>
		
			<linearGradient id="o_00000008848266053612482110000014379734606615056012_" gradientUnits="userSpaceOnUse" x1="-20.6143" y1="35.1198" x2="679.1418" y2="35.1198" gradientTransform="matrix(1 0 0 -1 0 136.1299)">
			<stop  offset="0" style="stop-color:#91B796"/>
			<stop  offset="0.5" style="stop-color:#E2EED9"/>
			<stop  offset="1" style="stop-color:#91B796"/>
		</linearGradient>
		<path id="o" style="fill:url(#o_00000008848266053612482110000014379734606615056012_);" d="M444.4,67.5c44.1,0.5,44.1,66.6,0,67
			C400.3,134,400.4,68,444.4,67.5z M424.8,81.5c-25.5,26.1,13.1,64.5,39.2,39.1C489.5,94.6,450.8,56,424.8,81.5z"/>
		
			<linearGradient id="o_00000072997618297016805710000006209964172707384707_" gradientUnits="userSpaceOnUse" x1="-20.6143" y1="34.1299" x2="679.1418" y2="34.1299" gradientTransform="matrix(1 0 0 -1 0 136.1299)">
			<stop  offset="0" style="stop-color:#91B796"/>
			<stop  offset="0.5" style="stop-color:#E2EED9"/>
			<stop  offset="1" style="stop-color:#91B796"/>
		</linearGradient>
		
			<path id="o_00000117670705547937679990000005190511384080976038_" style="fill:url(#o_00000072997618297016805710000006209964172707384707_);" d="
			M516.5,68.5c44.1,0.5,44.1,66.6,0,67C472.4,135,472.5,69,516.5,68.5z M496.9,82.4c-25.5,26.1,13.1,64.5,39.2,39.1
			C561.6,95.6,522.9,57,496.9,82.4z"/>
		
			<linearGradient id="s_00000044151878824067390600000010473429471850494856_" gradientUnits="userSpaceOnUse" x1="-20.6143" y1="33.7198" x2="679.1418" y2="33.7198" gradientTransform="matrix(1 0 0 -1 0 136.1299)">
			<stop  offset="0" style="stop-color:#91B796"/>
			<stop  offset="0.5" style="stop-color:#E2EED9"/>
			<stop  offset="1" style="stop-color:#91B796"/>
		</linearGradient>
		<path id="s" style="fill:url(#s_00000044151878824067390600000010473429471850494856_);" d="M661.1,103.6
			c-2.2-2.9-14.4-9-17.6-12.2c-9.3-13.4,8.9-21.8,18-7.4l4-1.5c-9.8-23.5-41.4-7.2-25.8,12.8c2.3,2.7,15.1,9.2,17.6,12.2
			c11.5,11.1-6.3,29-17.4,17.5c-2.5-2.8-4.7-5.5-4.6-8c0.1-6,1.8-11.5-5.3-17c-3.3,6.4-1,13,1.9,18
			C635.7,150.1,682.3,127.9,661.1,103.6z"/>
		<g>
			
				<linearGradient id="SVGID_00000056396675641477006290000009522236536722642102_" gradientUnits="userSpaceOnUse" x1="-20.6143" y1="35.5148" x2="679.1418" y2="35.5148" gradientTransform="matrix(1 0 0 -1 0 136.1299)">
				<stop  offset="0" style="stop-color:#91B796"/>
				<stop  offset="0.5" style="stop-color:#E2EED9"/>
				<stop  offset="1" style="stop-color:#91B796"/>
			</linearGradient>
			<path style="fill:url(#SVGID_00000056396675641477006290000009522236536722642102_);" d="M555.9,67.4h5.5v7.7
				c3.4-3.3,7.5-5,12.3-5c4.9,0,9.1,1.7,12.6,5.2c0.9,0.9,1.8,2,2.5,3.1c0.7-1.1,1.5-2.1,2.5-3.1c3.5-3.5,7.7-5.2,12.6-5.2
				s9.1,1.7,12.6,5.2c3.3,3.3,5,7.4,5.2,12v46.4h-5.5V87.5h0.1c-0.2-3.2-1.4-5.9-3.6-8.1c-2.5-2.4-5.4-3.6-8.8-3.6s-6.3,1.2-8.7,3.6
				c-2.4,2.4-3.6,5.4-3.6,9v45.5H586V87.5h0.1c-0.2-3.2-1.4-5.9-3.6-8.1c-2.5-2.4-5.4-3.6-8.8-3.6s-6.3,1.2-8.7,3.6
				c-2.1,2.1-3.3,4.6-3.6,7.6v46.9h-5.5L555.9,67.4L555.9,67.4z"/>
		</g>
	</g>
</g>
</svg>
