<?xml version="1.0" encoding="utf-8"?>
<!-- Generator: $$$/GeneralStr/196=Adobe Illustrator 27.6.0, SVG Export Plug-In . SVG Version: 6.00 Build 0)  -->
<svg version="1.1" id="Layer_3" xmlns="http://www.w3.org/2000/svg" xmlns:xlink="http://www.w3.org/1999/xlink" x="0px" y="0px"
	 viewBox="0 0 1000 800" style="enable-background:new 0 0 1000 800;" xml:space="preserve">
<style type="text/css">
	.st0{fill:#29AAE1;}
	.st1{fill:url(#XMLID_00000066474776612470845650000015903082514438098363_);}
</style>
<g id="XMLID_922_">
	<g id="XMLID_967_">
		<path id="XMLID_1169_" class="st0" d="M640.21,482.15c-29.95,58.72-90.98,98.94-161.42,98.94c-100.02,0-181.1-81.08-181.1-181.1
			c0-100.02,81.08-181.1,181.1-181.1c94.4,0,171.92,72.24,180.33,164.45c11.19-1.07,21.65-1.02,31.39-0.09
			c-8.53-109.47-100.06-195.64-211.72-195.64c-117.29,0-212.37,95.08-212.37,212.37c0,117.29,95.08,212.37,212.37,212.37
			c95.13,0,175.64-62.56,202.67-148.78C667.76,469.11,653.99,475.51,640.21,482.15z"/>
	</g>
	<g id="XMLID_2368_">
		<g id="XMLID_2377_">
			<path id="XMLID_2378_" class="st0" d="M658.12,449.74c18.72-6.3,35.9-9.63,51.6-10.72c-21.53-1.56-46.46,1.13-74.94,10.72
				c-64.79,21.82-132.46,70.43-194.2,76.28C508.33,533.03,585.06,474.35,658.12,449.74z"/>
		</g>
		<g id="XMLID_2375_">
			<path id="XMLID_2376_" class="st0" d="M700.06,456.68c18.72-6.3,35.9-9.63,51.6-10.72c-21.53-1.56-46.46,1.13-74.94,10.72
				c-64.79,21.82-132.46,70.43-194.2,76.28C550.27,539.96,627,481.28,700.06,456.68z"/>
		</g>
		<g id="XMLID_2373_">
			
				<linearGradient id="XMLID_00000160907281586859886300000000545975256394343088_" gradientUnits="userSpaceOnUse" x1="796.6339" y1="405.2618" x2="401.7674" y2="494.7457">
				<stop  offset="0" style="stop-color:#29A8E0"/>
				<stop  offset="1" style="stop-color:#2A3D8F"/>
			</linearGradient>
			<path id="XMLID_2374_" style="fill:url(#XMLID_00000160907281586859886300000000545975256394343088_);" d="M789.28,461.3
				c0,0-56.6-91.61-182.11-49.36c-96.74,32.57-199.9,124.91-280.15,45.37c0,0,38.44,77.19,159.83,36.65
				C606.58,453.99,689.67,393.52,789.28,461.3z"/>
		</g>
		<g id="XMLID_2371_">
			<path id="XMLID_2372_" class="st0" d="M397.02,473.78c-36.46-15.35-62.05-51.41-62.05-93.45c0-19.21,5.35-37.18,14.63-52.49
				c-19.95,18.51-32.44,44.95-32.44,74.31c0,0.16,0,0.33,0,0.49c0.14,29.24,18.82,55.37,46.46,64.93
				C374.53,471.33,385.67,473.29,397.02,473.78z"/>
		</g>
		<g id="XMLID_2369_">
			<path id="XMLID_2370_" class="st0" d="M452.07,460.57c-43.36-18.26-73.81-61.15-73.81-111.16c0-22.86,6.36-44.23,17.41-62.44
				c-23.73,22.02-38.58,53.47-38.58,88.39c0,0.19,0,0.39,0,0.58c0.16,34.78,22.39,65.86,55.26,77.24
				C425.32,457.66,438.58,459.99,452.07,460.57z"/>
		</g>
	</g>
</g>
</svg>
